<svg width="25" height="26" viewBox="0 0 25 26" fill="none" xmlns="http://www.w3.org/2000/svg">
<path fill-rule="evenodd" clip-rule="evenodd" d="M1.15636 0.966405C1.03824 1.23391 0.972992 1.56168 0.972992 1.94294V24.0589C0.972992 24.441 1.0383 24.7687 1.15651 25.0361L13.1904 13.0005L1.15636 0.966405ZM1.85144 25.7554C2.29751 25.9463 2.87943 25.8858 3.51399 25.5259L17.6711 17.4812L13.8975 13.7076L1.85144 25.7554ZM18.5736 16.9694L23.015 14.4459C24.412 13.6509 24.412 12.3519 23.015 11.5579L18.5714 9.03299L14.6046 13.0004L18.5736 16.9694ZM17.6696 8.52058L3.51399 0.476945C2.87947 0.11637 2.29757 0.0562049 1.85151 0.247337L13.8975 12.2933L17.6696 8.52058Z" fill="white"/>
</svg>
